<svg width="136" height="102" viewBox="0 0 136 102" fill="none" xmlns="http://www.w3.org/2000/svg">
<path d="M3.03109 53.25C2.22724 51.8577 2.22724 50.1423 3.03109 48.75L25.067 10.5827C25.8708 9.1904 27.3564 8.3327 28.9641 8.3327H73.0359C74.6436 8.3327 76.1292 9.1904 76.933 10.5827L98.9689 48.75C99.7728 50.1423 99.7728 51.8577 98.9689 53.25L76.933 91.4173C76.1292 92.8096 74.6436 93.6673 73.0359 93.6673H28.9641C27.3564 93.6673 25.8708 92.8096 25.067 91.4173L3.03109 53.25Z" fill="#121C1B" stroke="#00F8DA" stroke-width="3"/>
<path d="M37.0311 53.25C36.2272 51.8577 36.2272 50.1423 37.0311 48.75L59.067 10.5827C59.8708 9.1904 61.3564 8.3327 62.9641 8.3327H107.036C108.644 8.3327 110.129 9.1904 110.933 10.5827L132.969 48.75C133.773 50.1423 133.773 51.8577 132.969 53.25L110.933 91.4173C110.129 92.8096 108.644 93.6673 107.036 93.6673H62.9641C61.3564 93.6673 59.8708 92.8096 59.067 91.4173L37.0311 53.25Z" fill="#121C1B" stroke="#00F8DA" stroke-width="3"/>
<path d="M16.0943 59V55.48H22.1743V39.192L16.0623 43.736V39.512L21.4383 35.64H26.1743V55.48H31.0703V59H16.0943Z" fill="#00F8DA"/>
<path d="M65.3161 39.4595C66.0145 36.8303 68.3945 35 71.115 35H103.227C107.166 35 110.037 38.7327 109.025 42.5405L103.712 62.5405C103.014 65.1697 100.634 67 97.9136 67H65.802C61.8622 67 58.9916 63.2673 60.0031 59.4595L65.3161 39.4595Z" fill="#00F8DA"/>
<path fill-rule="evenodd" clip-rule="evenodd" d="M92.872 40.4857H104.955C108.881 40.4857 111.774 44.0969 110.858 47.8531L109.089 55.1064C108.434 57.7921 105.993 59.6857 103.186 59.6857H90.6605C84.9148 59.6857 80.68 54.4006 82.0209 48.9033C83.2251 43.9664 87.7121 40.4857 92.872 40.4857ZM92.872 44.7524C89.7171 44.7524 86.9737 46.8806 86.2375 49.899C85.551 52.7134 87.719 55.4191 90.6605 55.4191H103.186C103.988 55.4191 104.685 54.878 104.872 54.1107L106.642 46.8573C106.903 45.7841 106.077 44.7524 104.955 44.7524H92.872Z" fill="#121C1B"/>
</svg>
