<svg width="136" height="102" viewBox="0 0 136 102" fill="none" xmlns="http://www.w3.org/2000/svg">
<path d="M3.03109 53.25C2.22724 51.8577 2.22724 50.1423 3.03109 48.75L25.067 10.5827C25.8708 9.1904 27.3564 8.3327 28.9641 8.3327H73.0359C74.6436 8.3327 76.1292 9.1904 76.933 10.5827L98.9689 48.75C99.7728 50.1423 99.7728 51.8577 98.9689 53.25L76.933 91.4173C76.1292 92.8096 74.6436 93.6673 73.0359 93.6673H28.9641C27.3564 93.6673 25.8708 92.8096 25.067 91.4173L3.03109 53.25Z" fill="#121C1B" stroke="#00F8DA" stroke-width="3"/>
<path d="M37.0311 53.25C36.2272 51.8577 36.2272 50.1423 37.0311 48.75L59.067 10.5827C59.8708 9.1904 61.3564 8.3327 62.9641 8.3327H107.036C108.644 8.3327 110.129 9.1904 110.933 10.5827L132.969 48.75C133.773 50.1423 133.773 51.8577 132.969 53.25L110.933 91.4173C110.129 92.8096 108.644 93.6673 107.036 93.6673H62.9641C61.3564 93.6673 59.8708 92.8096 59.067 91.4173L37.0311 53.25Z" fill="#121C1B" stroke="#00F8DA" stroke-width="3"/>
<path d="M70 52.0171L84.5 60L99 52.0171L98.933 51.8971L84.5 28L70.0812 51.8839L70 52.0171Z" fill="#00F8DA"/>
<path d="M70 54L70.0678 54.0946L84.5 74L98.9463 54.0812L99 54L98.9463 54.0402L84.5 62.6195L70.0678 54.0402L70 54Z" fill="#00F8DA"/>
<path d="M70 51.7812L84.5 60L99 51.7812L98.933 51.6577L84.5 45L70.0812 51.6441L70 51.7812Z" fill="#00F8DA"/>
<path opacity="0.8" d="M70 52.0171L84 60V28L70.0784 51.8839L70 52.0171Z" fill="#00F8DA"/>
<path d="M70 54L70.0655 54.0946L84 74V62.6195L70.0655 54.0402L70 54Z" fill="#00F8DA"/>
<path d="M15.9343 62V58.128L23.2303 50.8C24.2543 49.7547 25.0116 48.816 25.5023 47.984C25.9929 47.1307 26.2383 46.256 26.2383 45.36C26.2383 44.272 25.9396 43.4293 25.3423 42.832C24.7449 42.2133 23.9343 41.904 22.9103 41.904C21.7796 41.904 20.8943 42.2347 20.2543 42.896C19.6143 43.536 19.2943 44.432 19.2943 45.584H15.2943C15.3156 44.0907 15.6356 42.8107 16.2543 41.744C16.8943 40.656 17.7903 39.8133 18.9423 39.216C20.0943 38.6187 21.4383 38.32 22.9743 38.32C24.4463 38.32 25.7263 38.5973 26.8143 39.152C27.9023 39.7067 28.7449 40.4853 29.3423 41.488C29.9396 42.4907 30.2383 43.6853 30.2383 45.072C30.2383 46.5013 29.8649 47.8987 29.1183 49.264C28.3929 50.608 27.2196 52.0587 25.5983 53.616L20.7343 58.384H30.5263V62H15.9343Z" fill="#00F8DA"/>
</svg>
