<svg width="136" height="102" viewBox="0 0 136 102" fill="none" xmlns="http://www.w3.org/2000/svg">
<path d="M3.03109 53.25C2.22724 51.8577 2.22724 50.1423 3.03109 48.75L25.067 10.5827C25.8708 9.1904 27.3564 8.3327 28.9641 8.3327H73.0359C74.6436 8.3327 76.1292 9.1904 76.933 10.5827L98.9689 48.75C99.7728 50.1423 99.7728 51.8577 98.9689 53.25L76.933 91.4173C76.1292 92.8096 74.6436 93.6673 73.0359 93.6673H28.9641C27.3564 93.6673 25.8708 92.8096 25.067 91.4173L3.03109 53.25Z" fill="#121C1B" stroke="#00F8DA" stroke-width="3"/>
<path d="M37.0311 53.25C36.2272 51.8577 36.2272 50.1423 37.0311 48.75L59.067 10.5827C59.8708 9.1904 61.3564 8.3327 62.9641 8.3327H107.036C108.644 8.3327 110.129 9.1904 110.933 10.5827L132.969 48.75C133.773 50.1423 133.773 51.8577 132.969 53.25L110.933 91.4173C110.129 92.8096 108.644 93.6673 107.036 93.6673H62.9641C61.3564 93.6673 59.8708 92.8096 59.067 91.4173L37.0311 53.25Z" fill="#121C1B" stroke="#00F8DA" stroke-width="3"/>
<circle cx="80.4706" cy="56.5294" r="14.4706" fill="#00F8DA"/>
<mask id="path-4-inside-1_150_9" fill="white">
<path fill-rule="evenodd" clip-rule="evenodd" d="M98.1567 56.5044C102.035 53.9085 104.588 49.4877 104.588 44.4706C104.588 36.4787 98.1094 30 90.1175 30C83.9605 30 78.7016 33.8453 76.6113 39.2654C77.8535 38.9889 79.145 38.8431 80.4704 38.8431C90.23 38.8431 98.1432 46.7481 98.1567 56.5044Z"/>
</mask>
<path d="M98.1567 56.5044L95.1567 56.5086L95.1645 62.1174L99.8255 58.9975L98.1567 56.5044ZM76.6113 39.2654L73.8123 38.186L71.7976 43.4101L77.263 42.1938L76.6113 39.2654ZM101.588 44.4706C101.588 48.4447 99.5696 51.9486 96.4879 54.0114L99.8255 58.9975C104.5 55.8684 107.588 50.5307 107.588 44.4706H101.588ZM90.1175 33C96.4525 33 101.588 38.1356 101.588 44.4706H107.588C107.588 34.8218 99.7662 27 90.1175 27V33ZM79.4104 40.3449C81.0692 36.0434 85.2417 33 90.1175 33V27C82.6793 27 76.3339 31.6472 73.8123 38.186L79.4104 40.3449ZM77.263 42.1938C78.2927 41.9646 79.3656 41.8431 80.4704 41.8431V35.8431C78.9243 35.8431 77.4144 36.0133 75.9596 36.337L77.263 42.1938ZM80.4704 41.8431C88.5745 41.8431 95.1455 48.4072 95.1567 56.5086L101.157 56.5003C101.141 45.0889 91.8854 35.8431 80.4704 35.8431V41.8431Z" fill="#00F8DA" mask="url(#path-4-inside-1_150_9)"/>
<path d="M24.8863 60V55.36H14.4863V49.568L23.4783 36.64H27.9583L18.3263 50.624V51.84H24.8863V46.56H28.8863V60H24.8863Z" fill="#00F8DA"/>
</svg>
