<svg width="136" height="102" viewBox="0 0 136 102" fill="none" xmlns="http://www.w3.org/2000/svg">
<path d="M3.03109 53.25C2.22724 51.8577 2.22724 50.1423 3.03109 48.75L25.067 10.5827C25.8708 9.1904 27.3564 8.3327 28.9641 8.3327H73.0359C74.6436 8.3327 76.1292 9.1904 76.933 10.5827L98.9689 48.75C99.7728 50.1423 99.7728 51.8577 98.9689 53.25L76.933 91.4173C76.1292 92.8096 74.6436 93.6673 73.0359 93.6673H28.9641C27.3564 93.6673 25.8708 92.8096 25.067 91.4173L3.03109 53.25Z" fill="#121C1B" stroke="#00F8DA" stroke-width="3"/>
<path d="M37.0311 53.25C36.2272 51.8577 36.2272 50.1423 37.0311 48.75L59.067 10.5827C59.8708 9.1904 61.3564 8.3327 62.9641 8.3327H107.036C108.644 8.3327 110.129 9.1904 110.933 10.5827L132.969 48.75C133.773 50.1423 133.773 51.8577 132.969 53.25L110.933 91.4173C110.129 92.8096 108.644 93.6673 107.036 93.6673H62.9641C61.3564 93.6673 59.8708 92.8096 59.067 91.4173L37.0311 53.25Z" fill="#00F8DA" stroke="#00F8DA" stroke-width="3"/>
<path d="M67.3161 39.4595C68.0145 36.8303 70.3945 35 73.115 35H105.227C109.166 35 112.037 38.7327 111.025 42.5405L105.712 62.5405C105.014 65.1697 102.634 67 99.9136 67H67.802C63.8622 67 60.9916 63.2673 62.0031 59.4595L67.3161 39.4595Z" fill="#121C1B"/>
<path fill-rule="evenodd" clip-rule="evenodd" d="M94.872 40.4857H106.955C110.881 40.4857 113.774 44.0969 112.858 47.8531L111.089 55.1064C110.434 57.7921 107.993 59.6857 105.186 59.6857H92.6605C86.9148 59.6857 82.68 54.4006 84.0209 48.9033C85.2251 43.9664 89.7121 40.4857 94.872 40.4857ZM94.872 44.7524C91.7171 44.7524 88.9737 46.8806 88.2375 49.899C87.551 52.7134 89.719 55.4191 92.6605 55.4191H105.186C105.988 55.4191 106.685 54.878 106.872 54.1107L108.642 46.8573C108.903 45.7841 108.077 44.7524 106.955 44.7524H94.872Z" fill="#00F8DA"/>
<path d="M16.0943 59V55.48H22.1743V39.192L16.0623 43.736V39.512L21.4383 35.64H26.1743V55.48H31.0703V59H16.0943Z" fill="#00F8DA"/>
</svg>
