<svg width="136" height="102" viewBox="0 0 136 102" fill="none" xmlns="http://www.w3.org/2000/svg">
<path d="M3.03109 53.25C2.22724 51.8577 2.22724 50.1423 3.03109 48.75L25.067 10.5827C25.8708 9.1904 27.3564 8.3327 28.9641 8.3327H73.0359C74.6436 8.3327 76.1292 9.1904 76.933 10.5827L98.9689 48.75C99.7728 50.1423 99.7728 51.8577 98.9689 53.25L76.933 91.4173C76.1292 92.8096 74.6436 93.6673 73.0359 93.6673H28.9641C27.3564 93.6673 25.8708 92.8096 25.067 91.4173L3.03109 53.25Z" fill="#121C1B" stroke="#00F8DA" stroke-width="3"/>
<path d="M37.0311 53.25C36.2272 51.8577 36.2272 50.1423 37.0311 48.75L59.067 10.5827C59.8708 9.1904 61.3564 8.3327 62.9641 8.3327H107.036C108.644 8.3327 110.129 9.1904 110.933 10.5827L132.969 48.75C133.773 50.1423 133.773 51.8577 132.969 53.25L110.933 91.4173C110.129 92.8096 108.644 93.6673 107.036 93.6673H62.9641C61.3564 93.6673 59.8708 92.8096 59.067 91.4173L37.0311 53.25Z" fill="#00F8DA" stroke="#00F8DA" stroke-width="3"/>
<path fill-rule="evenodd" clip-rule="evenodd" d="M107.958 64.263H108.988C108.996 64.0036 109 63.7431 109 63.4817C109 49.6746 97.8071 38.4817 84 38.4817C70.1929 38.4817 59 49.6746 59 63.4817C59 63.7431 59.004 64.0036 59.012 64.263H76.7089C76.7788 55.6935 83.7473 48.7682 92.3333 48.7682C100.919 48.7682 107.888 55.6935 107.958 64.263Z" fill="#121C1B"/>
<path fill-rule="evenodd" clip-rule="evenodd" d="M98.3945 64.3932C98.5186 63.7177 98.5835 63.0213 98.5835 62.3099C98.5835 56.8381 94.748 52.2621 89.6189 51.1237C90.4959 50.9453 91.4037 50.8516 92.3335 50.8516C99.8123 50.8516 105.875 56.9144 105.875 64.3932H98.3945Z" fill="#121C1B"/>
<path d="M22.7823 62.32C21.2676 62.32 19.9449 62.0427 18.8143 61.488C17.7049 60.9333 16.8409 60.1547 16.2223 59.152C15.6036 58.1493 15.2943 56.9653 15.2943 55.6H19.3263C19.3263 56.6453 19.6249 57.4667 20.2223 58.064C20.8409 58.64 21.7049 58.928 22.8142 58.928C23.9236 58.928 24.7769 58.6293 25.3743 58.032C25.9716 57.4347 26.2703 56.624 26.2703 55.6V53.776C26.2703 52.7307 25.9716 51.92 25.3743 51.344C24.7769 50.7467 23.9236 50.448 22.8142 50.448H20.1903V46.832L25.3423 42.064H16.3503V38.64H29.4062V42.256L22.8142 48.304V47.024C25.1183 47.024 26.9423 47.632 28.2863 48.848C29.6303 50.064 30.3022 51.7067 30.3022 53.776V55.6C30.3022 56.9653 29.9929 58.1493 29.3743 59.152C28.7556 60.1547 27.8809 60.9333 26.7503 61.488C25.6196 62.0427 24.2969 62.32 22.7823 62.32Z" fill="#00F8DA"/>
</svg>
