<svg width="136" height="102" viewBox="0 0 136 102" fill="none" xmlns="http://www.w3.org/2000/svg">
<path d="M3.03109 53.25C2.22724 51.8577 2.22724 50.1423 3.03109 48.75L25.067 10.5827C25.8708 9.1904 27.3564 8.3327 28.9641 8.3327H73.0359C74.6436 8.3327 76.1292 9.1904 76.933 10.5827L98.9689 48.75C99.7728 50.1423 99.7728 51.8577 98.9689 53.25L76.933 91.4173C76.1292 92.8096 74.6436 93.6673 73.0359 93.6673H28.9641C27.3564 93.6673 25.8708 92.8096 25.067 91.4173L3.03109 53.25Z" fill="#121C1B" stroke="#00F8DA" stroke-width="3"/>
<path d="M37.0311 53.25C36.2272 51.8577 36.2272 50.1423 37.0311 48.75L59.067 10.5827C59.8708 9.1904 61.3564 8.3327 62.9641 8.3327H107.036C108.644 8.3327 110.129 9.1904 110.933 10.5827L132.969 48.75C133.773 50.1423 133.773 51.8577 132.969 53.25L110.933 91.4173C110.129 92.8096 108.644 93.6673 107.036 93.6673H62.9641C61.3564 93.6673 59.8708 92.8096 59.067 91.4173L37.0311 53.25Z" fill="#00F8DA" stroke="#00F8DA" stroke-width="3"/>
<circle cx="80.4706" cy="55.4706" r="14.4706" fill="#121C1B"/>
<path d="M80.0901 36.5C82.322 32.6103 86.4445 30 91.1611 30C98.2518 30 104 35.8993 104 43.1765C104 46.5702 102.75 49.6642 100.696 52" stroke="#121C1B" stroke-width="5" stroke-linecap="round"/>
<path d="M24.8863 60V55.36H14.4863V49.568L23.4783 36.64H27.9583L18.3263 50.624V51.84H24.8863V46.56H28.8863V60H24.8863Z" fill="#00F8DA"/>
</svg>
