<svg width="55" height="43" viewBox="0 0 55 43" fill="none" xmlns="http://www.w3.org/2000/svg">
<path d="M7.54466 32.7992C6.28764 32.7992 5.52445 31.5711 5.29999 30.957C12.1836 29.8823 27.4773 27.8251 33.5829 28.1936C41.2147 28.6542 43.4594 31.8781 43.2349 32.3387C43.1883 32.4345 39.8679 32.3387 38.2967 31.8781C35.6888 31.1136 29.9914 30.957 21.6861 32.3387C13.3808 33.7203 9.11593 32.7992 7.54466 32.7992Z" fill="#333333"/>
<path fill-rule="evenodd" clip-rule="evenodd" d="M19.7656 29.0028C25.1813 28.422 30.5083 28.0141 33.5525 28.1922C37.3586 28.4148 39.8287 29.3059 41.3223 30.2027C42.0688 30.6509 42.5724 31.1012 42.8765 31.4713C43.0283 31.656 43.1321 31.8228 43.1909 31.9613C43.2203 32.0304 43.2395 32.095 43.2467 32.1527C43.2538 32.2093 43.2505 32.2673 43.2256 32.3169L43.1453 32.277L43.2256 32.3169C43.2136 32.3408 43.1948 32.353 43.1865 32.3579C43.1766 32.3638 43.1669 32.3675 43.1597 32.3698C43.1453 32.3745 43.1292 32.3778 43.1137 32.3802C43.0821 32.3852 43.04 32.3889 42.9901 32.3917C42.8895 32.3973 42.7485 32.3995 42.5775 32.3982C42.2349 32.3956 41.7673 32.3788 41.2526 32.3451C40.2255 32.2781 39.0012 32.1436 38.21 31.9188C35.6365 31.1875 29.9874 31.0336 21.7315 32.365C15.1441 33.4274 11.0995 33.0794 8.94533 32.8941C8.39581 32.8468 7.96929 32.8101 7.65496 32.8101C6.99924 32.8101 6.47554 32.4992 6.09058 32.1182C5.70633 31.738 5.45431 31.2826 5.33884 30.9764L5.29999 30.8734L5.40937 30.8568C8.83295 30.3387 14.3475 29.5838 19.7656 29.0028ZM5.54864 31.0163C5.67049 31.2966 5.89493 31.6728 6.21718 31.9917C6.57997 32.3507 7.06072 32.6316 7.65496 32.6316C7.97845 32.6316 8.4129 32.6689 8.97024 32.7168C11.1323 32.9023 15.1439 33.2466 21.7028 32.1888C29.9645 30.8565 35.6463 31.0046 38.2593 31.7471C39.0306 31.9663 40.2384 32.1 41.2644 32.167C41.7762 32.2004 42.2404 32.2171 42.5788 32.2197C42.7483 32.221 42.885 32.2188 42.98 32.2135C43.0183 32.2113 43.0484 32.2088 43.0705 32.206C43.0706 32.1976 43.0702 32.1873 43.0686 32.1749C43.064 32.1381 43.0507 32.0899 43.0256 32.0307C42.9754 31.9125 42.8821 31.7602 42.7375 31.5842C42.4487 31.2328 41.9618 30.7952 41.2295 30.3555C39.7656 29.4765 37.325 28.5917 33.542 28.3704C30.5149 28.1933 25.2023 28.5993 19.7849 29.1802C14.4287 29.7546 8.97765 30.4991 5.54864 31.0163Z" fill="black"/>
<path d="M9.10053 40.2068C7.98453 39.3247 3.96799 37.1778 2.62775 33.3708C0.842147 28.2986 3.29736 28.1221 4.63655 22.5649C6.86858 13.3028 11.1093 10.8767 14.9037 10.2151C17.1357 9.82595 18.3205 10.3689 19.8141 10.9995C21.7485 10.591 23.3853 9.55371 26.9565 10.2151C29.3192 10.6527 31.9412 13.8908 32.09 14.1849L39.0092 27.196C39.8276 27.49 41.018 28.2986 41.9108 30.0628C43.25 30.7244 43.25 32.4886 43.25 32.4886C43.25 32.4886 39.2324 28.9602 32.3132 28.9602C24.7245 28.9602 12.6717 32.7092 5.97574 32.2681C7.38933 32.6357 14.4729 32.3604 18.2517 31.8271C22.9389 31.1655 30.5276 29.8423 35.2148 30.2834C38.9646 30.6362 42.134 32.4886 42.3572 32.9294C42.0596 35.3552 37.4915 39.1483 34.9916 40.2068C32.4918 41.2653 31.4204 42.3389 30.974 42.6329C24.6572 43.3678 11.7961 43.2057 9.10053 40.2068Z" fill="url(#paint0_radial_34_899)"/>
<path fill-rule="evenodd" clip-rule="evenodd" d="M20.1114 11.1079C21.4798 11.7029 22.4071 12.2639 23.8784 13.3012L23.7745 13.4447C22.2231 12.3509 21.2864 11.7939 19.7933 11.164C18.8411 10.819 17.2793 10.5179 15.694 10.7367C14.1102 10.9553 12.5077 11.6916 11.4581 13.4183C10.8617 14.3993 10.4216 15.4365 10.09 16.4705C9.51954 18.2495 9.27132 20.0167 9.10122 21.4702C9.07533 21.6914 9.05123 21.9056 9.02804 22.1116C8.97522 22.581 8.92719 23.0077 8.87391 23.3767C8.79764 23.905 8.70884 24.3299 8.57235 24.5993C8.46516 24.8109 8.3057 24.9927 8.12202 25.167C8.00003 25.2828 7.86355 25.3986 7.72248 25.5184C7.65285 25.5775 7.58211 25.6375 7.51144 25.699C7.08002 26.0742 6.62474 26.5236 6.30581 27.2281C5.8915 28.1432 5.7009 29.9336 6.12273 32.1535C9.43781 32.3563 14.0609 31.5419 18.8099 30.6698C19.0269 30.63 19.2441 30.59 19.4615 30.55C24.0272 29.7101 28.6552 28.8587 32.2713 28.8587C35.7316 28.8587 38.467 29.7402 40.3379 30.6221C41.2733 31.0631 41.9927 31.5042 42.4788 31.8356C42.7218 32.0012 42.9065 32.1395 43.0308 32.2366C43.0407 32.2443 43.0502 32.2518 43.0593 32.259C43.057 32.2352 43.0543 32.2096 43.0511 32.1823C43.0307 32.0116 42.99 31.7773 42.9088 31.5234C42.7459 31.0142 42.4237 30.4366 41.7873 30.1225L41.7606 30.1094L41.7473 30.0831C40.8681 28.3473 39.6999 27.5593 38.9077 27.275L38.8752 27.2633L31.9699 14.2914L31.9691 14.2898C31.955 14.2619 31.9033 14.1861 31.8123 14.068C31.7233 13.9526 31.601 13.8024 31.4507 13.6284C31.1502 13.2806 30.7387 12.8394 30.2588 12.3939C29.2951 11.4991 28.0704 10.6011 26.9212 10.3885C24.2407 9.89253 22.6756 10.3616 21.225 10.7963C20.8519 10.9081 20.4864 11.0177 20.1114 11.1079ZM43.1606 32.4565H43.25C43.25 32.4912 43.2294 32.5227 43.1973 32.537C43.1652 32.5512 43.1276 32.5455 43.1013 32.5224L43.1008 32.522L43.0988 32.5203L43.0905 32.5132C43.083 32.5068 43.0717 32.4972 43.0565 32.4846C43.0262 32.4594 42.9806 32.4223 42.9199 32.3749C42.7984 32.28 42.6168 32.1441 42.3772 31.9807C41.8979 31.654 41.1867 31.2177 40.2609 30.7813C38.4094 29.9084 35.7002 29.0351 32.2713 29.0351C28.6724 29.0351 24.0592 29.8837 19.4857 30.725C19.2712 30.7645 19.0568 30.8039 18.8426 30.8433C15.2202 31.5084 11.6522 32.1442 8.6794 32.316C9.45659 32.3178 10.3425 32.3001 11.2728 32.2657C13.6806 32.1767 16.381 31.9758 18.258 31.7112C18.9457 31.6142 19.6968 31.5028 20.4926 31.3848C22.3938 31.1029 24.5499 30.7833 26.705 30.5319C29.7614 30.1753 32.8252 29.9549 35.1687 30.1752C37.0472 30.3518 38.7789 30.9033 40.0688 31.4655C40.7139 31.7466 41.2498 32.031 41.6395 32.2735C41.8342 32.3947 41.9936 32.5061 42.1122 32.6022C42.227 32.6952 42.3145 32.7822 42.3516 32.8554L42.3636 32.8792L42.3604 32.9055C42.2837 33.5301 41.9341 34.2326 41.4239 34.9466C40.9124 35.6623 40.2339 36.3975 39.4883 37.0885C37.9984 38.4692 36.2305 39.6827 34.9732 40.2146C32.9987 41.0498 31.9315 41.8894 31.3475 42.3488C31.1983 42.4662 31.0806 42.5587 30.9874 42.6201L30.9696 42.6318L30.9483 42.6343C27.7977 43.0004 23.0183 43.143 18.6897 42.8207C16.5254 42.6596 14.4709 42.3821 12.7877 41.9572C11.1135 41.5345 9.78896 40.9619 9.09744 40.1977C8.9115 40.0515 8.64595 39.8706 8.32317 39.6508C8.16777 39.5449 7.9991 39.43 7.81965 39.3056C7.26651 38.9221 6.61798 38.4526 5.96196 37.8914C4.65071 36.7695 3.30445 35.2768 2.62999 33.3629C2.18351 32.0959 2 31.1288 2 30.3034C2 29.4767 2.18412 28.7977 2.46479 28.1079C2.62354 27.7177 2.81209 27.3257 3.01593 26.9019C3.53386 25.825 4.15048 24.543 4.62756 22.5653C5.74114 17.9489 7.35812 15.0263 9.17834 13.1743C10.9999 11.321 13.0186 10.5464 14.9216 10.2149C16.0434 10.0195 16.9057 10.0577 17.6766 10.2254C18.3977 10.3823 19.0365 10.6523 19.725 10.9433C19.7616 10.9587 19.7983 10.9743 19.8352 10.9899C20.2785 10.8948 20.7094 10.7656 21.1551 10.6319C22.6116 10.195 24.2268 9.7105 26.9542 10.2151C28.1575 10.4377 29.4144 11.3678 30.3812 12.2654C30.8666 12.716 31.2826 13.162 31.5867 13.514C31.7388 13.69 31.8631 13.8427 31.9545 13.9612C32.0431 14.0761 32.1052 14.1645 32.1285 14.21C32.1287 14.2103 32.1288 14.2106 32.1289 14.2109L39.0014 27.1211C39.8331 27.4296 41.0084 28.2451 41.8939 29.9782C42.573 30.3249 42.9109 30.9444 43.0792 31.4703C43.1646 31.7373 43.2072 31.9829 43.2286 32.1617C43.2392 32.2512 43.2446 32.3243 43.2473 32.3752C43.2486 32.4007 43.2493 32.4207 43.2496 32.4345C43.2498 32.4393 43.2499 32.4434 43.2499 32.4467L43.25 32.4504L43.25 32.4547L43.25 32.4559V32.4565C43.25 32.4566 43.25 32.4565 43.1606 32.4565ZM9.35025 40.2039C10.0331 40.8668 11.2586 41.3891 12.832 41.7863C14.5012 42.2077 16.5444 42.4842 18.7031 42.6448C23.0107 42.9655 27.7667 42.8245 30.9058 42.4616C30.9889 42.4051 31.0948 42.3217 31.2283 42.2165C31.7715 41.7887 32.7718 41.0007 34.5551 40.2036C29.8029 39.9794 20.033 39.5643 16.0526 39.564L9.35025 40.2039ZM16.0536 39.3876C20.1427 39.3879 30.3217 39.825 34.9217 40.0444C36.1524 39.5192 37.8929 38.3251 39.366 36.9599C40.1056 36.2744 40.7753 35.5482 41.2778 34.845C41.773 34.1519 42.1004 33.4889 42.1792 32.9138C42.1521 32.8752 42.0946 32.8161 41.9988 32.7385C41.8877 32.6485 41.7349 32.5414 41.5442 32.4227C41.163 32.1854 40.6349 31.905 39.9966 31.6268C38.7198 31.0704 37.0069 30.5252 35.1518 30.3508C32.8285 30.1324 29.7809 30.3507 26.7259 30.707C24.5738 30.9581 22.4227 31.277 20.5224 31.5588C19.7258 31.6769 18.9733 31.7885 18.2833 31.8858C16.3978 32.1516 13.6906 32.3529 11.2795 32.442C10.0737 32.4866 8.94077 32.5031 8.02064 32.4856C7.20891 32.4702 6.55488 32.4282 6.16321 32.3531C6.64587 34.5325 8.45702 36.2074 10.4822 37.3818C12.5437 38.5772 14.8064 39.2416 16.0536 39.3876ZM15.3587 39.453C14.0425 39.188 12.1444 38.5502 10.3917 37.5339C8.30945 36.3264 6.41184 34.5725 5.96012 32.2538C5.52481 30.0194 5.69786 28.184 6.12238 27.2019C6.11986 27.1983 6.1172 27.1945 6.11439 27.1905C6.09115 27.1572 6.05801 27.1092 6.01825 27.0506C5.93879 26.9334 5.8327 26.7733 5.72649 26.602C5.62046 26.431 5.5134 26.2473 5.43255 26.0832C5.39214 26.0012 5.35757 25.9226 5.33293 25.8521C5.30884 25.7832 5.29182 25.7152 5.29182 25.6566C5.29182 25.5141 5.3799 25.3696 5.49197 25.2314C5.60618 25.0905 5.76182 24.9368 5.92629 24.7745L5.92913 24.7717C6.26472 24.4405 6.6423 24.0666 6.85688 23.643C6.90715 23.5438 6.95737 23.3782 7.00757 23.1552C7.05732 22.9343 7.10559 22.6639 7.1541 22.3595C7.2096 22.0113 7.26489 21.622 7.32286 21.2138C7.36649 20.9067 7.41164 20.5888 7.45955 20.2696C7.57072 19.5289 7.69623 18.7851 7.8501 18.1707C7.92704 17.8635 8.01157 17.5865 8.10581 17.3575C8.19938 17.1301 8.30551 16.9423 8.42924 16.8202C8.51169 16.7388 8.62705 16.6759 8.75336 16.6255C8.88074 16.5747 9.02567 16.5341 9.17268 16.5007C9.38585 16.4521 9.61078 16.417 9.79844 16.3876C9.84715 16.38 9.89336 16.3728 9.9362 16.3658C10.2692 15.3385 10.7099 14.3063 11.3048 13.3276C12.3886 11.5447 14.0455 10.7861 15.6693 10.562C16.6596 10.4253 17.6394 10.4869 18.474 10.6362C18.202 10.5418 17.9268 10.4604 17.6382 10.3976C16.8919 10.2353 16.0532 10.1969 14.9527 10.3886C13.0778 10.7152 11.0963 11.4762 9.30661 13.2971C7.51557 15.1194 5.91019 18.0097 4.80141 22.6061C4.31966 24.6032 3.69014 25.9123 3.1705 26.9929C2.96902 27.4119 2.78405 27.7965 2.63063 28.1736C2.35572 28.8493 2.17871 29.5055 2.17871 30.3034C2.17871 31.1027 2.35632 32.0494 2.79878 33.3049C3.45875 35.1778 4.77929 36.6461 6.07901 37.7581C6.72847 38.3137 7.37147 38.7793 7.92238 39.1612C8.0969 39.2823 8.26289 39.3953 8.41715 39.5004C8.73118 39.7143 8.99661 39.8952 9.18638 40.0423L15.3587 39.453ZM9.87637 16.5541C9.85792 16.557 9.83914 16.5599 9.82006 16.5629C9.63397 16.592 9.41946 16.6255 9.21285 16.6725C9.07065 16.7049 8.93569 16.743 8.82034 16.789C8.70393 16.8355 8.61371 16.8876 8.55561 16.9449C8.45711 17.0422 8.36185 17.204 8.27138 17.4239C8.18158 17.6421 8.09944 17.9101 8.02359 18.213C7.87189 18.8187 7.74739 19.5555 7.63633 20.2954C7.58894 20.6112 7.5439 20.9282 7.50026 21.2354C7.44199 21.6456 7.38621 22.0382 7.33064 22.3869C7.28192 22.6926 7.23297 22.9672 7.18202 23.1935C7.13152 23.4178 7.07757 23.6018 7.01672 23.7219C6.78799 24.1734 6.39064 24.5656 6.06051 24.8915L6.0555 24.8964C5.88767 25.0621 5.73887 25.2091 5.63151 25.3416C5.52135 25.4775 5.47053 25.5798 5.47053 25.6566C5.47053 25.6858 5.47986 25.7316 5.50187 25.7946C5.52334 25.856 5.55463 25.9276 5.59326 26.006C5.67048 26.1628 5.77419 26.341 5.87892 26.5099C5.98347 26.6786 6.08815 26.8366 6.16676 26.9525C6.18213 26.9751 6.1965 26.9962 6.20966 27.0154C6.53896 26.3569 6.98311 25.9234 7.3933 25.5666C7.46787 25.5018 7.54058 25.4401 7.61106 25.3803C7.74967 25.2626 7.87965 25.1523 7.99816 25.0399C8.17542 24.8716 8.31845 24.7061 8.41251 24.5204C8.53429 24.28 8.62038 23.8824 8.69699 23.3518C8.74987 22.9857 8.79739 22.5633 8.85004 22.0955C8.87329 21.8889 8.89754 21.6734 8.92369 21.4499C9.08974 20.031 9.33114 18.3033 9.87637 16.5541Z" fill="black"/>
<path d="M9.05118 40.2068C7.94294 39.3247 3.95431 37.1778 2.62339 33.3708C0.850195 28.2986 3.28834 28.1221 4.61823 22.5649C6.83474 13.3028 11.046 10.8767 14.814 10.2151C17.0305 9.82595 18.207 10.3689 19.6903 10.9995C17.7693 10.2971 12.8192 9.55378 9.71611 13.7438C9.02544 14.6764 8.94022 15.7864 8.60787 16.8312C7.46459 20.4252 8.23647 23.5245 7.72128 24.5497C7.31985 25.3485 6.77555 25.7453 6.124 27.196C5.6963 28.1483 6.124 29.8423 7.27799 31.8271C7.71853 32.4845 8.15758 33.105 8.59388 33.6865C10.1381 35.2505 13.2838 37.1322 19.247 36.4581C23.9188 35.9301 25.2104 34.9144 29.8861 34.9144C33.6541 34.9144 36.0922 35.3555 37.4221 37.1197C37.6437 38.4429 37.2448 39.1483 34.7623 40.2068C32.2798 41.2653 31.2159 42.3389 30.7726 42.6329C24.4997 43.3678 11.728 43.2057 9.05118 40.2068Z" fill="black" fill-opacity="0.3"/>
<path d="M37.8793 15.9977C36.5672 14.9569 34.8646 14.515 33.0063 14.3353C32.8327 14.3009 32.6637 14.2712 32.5015 14.2471C31.3385 14.0743 28.0612 14.1002 24.6632 14.2295C21.0742 14.1886 17.1109 14.1438 15.5408 14.9312C13.185 15.4476 11.404 17.4908 12.0245 24.5299C11.9087 25.2465 12.1334 26.5953 13.6792 27.1097C13.6875 27.1131 13.6961 27.116 13.7051 27.1182C13.9937 27.2116 14.3278 27.2763 14.7134 27.3028C17.816 27.5161 23.8143 26.1237 28.1579 26.1237C32.5015 26.1237 36.6382 26.6831 37.6724 27.1097C38.7066 27.5363 39.9914 26.4451 40.3623 24.9564C40.8174 23.9443 40.8164 22.6116 40.7309 21.7204C40.4904 19.2121 38.929 16.8304 37.8793 15.9977Z" fill="#423535"/>
<path fill-rule="evenodd" clip-rule="evenodd" d="M24.6723 14.2346C26.3607 14.1668 28.0195 14.1261 29.4012 14.125C30.781 14.1239 31.8911 14.1623 32.477 14.2542C32.6385 14.2795 32.8064 14.3106 32.9786 14.3465C34.8311 14.5361 36.5424 15.0027 37.8652 16.1103C38.399 16.5573 39.0544 17.4113 39.6059 18.4802C40.158 19.5504 40.61 20.8439 40.7308 22.1735C40.8159 23.1096 40.819 24.5219 40.3607 25.6039C40.1717 26.3979 39.7523 27.0887 39.2443 27.5264C38.7359 27.9645 38.1232 28.1595 37.5655 27.9167C37.3182 27.809 36.8769 27.6899 36.2802 27.5721C35.6856 27.4548 34.9428 27.3398 34.0966 27.2387C32.4042 27.0365 30.3009 26.89 28.1465 26.89C26.0389 26.89 23.5358 27.2396 21.1614 27.5711L21.0163 27.5914C18.6052 27.928 16.3329 28.2392 14.7794 28.1265C14.3906 28.0983 14.0518 28.0295 13.7574 27.9292C13.7466 27.9262 13.736 27.9225 13.7255 27.9181C12.1423 27.3604 11.9082 25.903 12.0232 25.1254C11.7158 21.4347 12.0029 19.0386 12.6691 17.4934C13.3371 15.9439 14.3846 15.2542 15.5763 14.9756C15.9779 14.7654 16.5236 14.6132 17.166 14.5024C17.8152 14.3906 18.5691 14.3201 19.3837 14.2769C21.012 14.1907 22.8905 14.2132 24.6723 14.2346ZM24.6749 14.4142L24.6769 14.4143C25.4474 14.4235 26.2011 14.4326 26.9098 14.4326C27.4284 14.4326 27.9524 14.4257 28.4778 14.4187C29.9923 14.3986 31.5174 14.3784 32.9508 14.5242C33.9137 14.726 35.0251 15.0823 35.9431 15.4273C36.4026 15.6 36.8125 15.7695 37.1299 15.9147C37.2887 15.9873 37.4236 16.0536 37.5297 16.1109C37.6373 16.169 37.7104 16.2153 37.7492 16.2478C38.2586 16.6742 38.9006 17.506 39.4455 18.5623C39.9897 19.6172 40.433 20.8883 40.5513 22.1897C40.6359 23.1211 40.6349 24.5004 40.1917 25.5408C39.9754 26.0486 39.6564 26.4694 39.1965 26.7216C38.9845 26.8378 38.7054 26.8618 38.2537 26.8205C37.9508 26.7928 37.5811 26.7372 37.1145 26.6671C36.8858 26.6327 36.6339 26.5948 36.3552 26.555C34.6655 26.3137 32.0261 26.0075 27.7505 26.0075C24.7406 26.0075 21.9397 26.2519 19.7228 26.4618C19.5276 26.4803 19.3369 26.4985 19.1511 26.5163C18.2811 26.5994 17.5168 26.6724 16.8826 26.7161C16.1093 26.7693 15.542 26.7777 15.2148 26.7122L15.206 26.7104H15.1971L15.1968 26.7104L15.194 26.7104C15.1922 26.7103 15.1896 26.7102 15.1863 26.7101C15.1847 26.71 15.183 26.71 15.1811 26.7099C15.1693 26.7093 15.1513 26.708 15.1281 26.7055C15.0817 26.7005 15.0144 26.6903 14.9331 26.6697C14.7706 26.6285 14.5534 26.5459 14.3361 26.3806C13.9054 26.0531 13.4558 25.386 13.4558 24.0144C13.4558 21.2665 13.5422 19.2887 13.863 17.8736C14.1818 16.468 14.7284 15.6319 15.6401 15.1452C16.2593 15.0038 17.5545 14.8597 19.1773 14.7317C20.8069 14.6031 22.76 14.4912 24.6749 14.4142ZM16.5725 14.809C17.254 14.7196 18.1473 14.6328 19.1631 14.5527C19.8587 14.4978 20.6131 14.4459 21.3981 14.3986C20.7049 14.4055 20.0298 14.4225 19.3933 14.4563C18.5824 14.4992 17.8363 14.5692 17.1967 14.6794C16.9745 14.7177 16.7659 14.7607 16.5725 14.809ZM15.0426 15.3247C14.374 15.8652 13.9509 16.6711 13.6872 17.8341C13.3613 19.2713 13.2755 21.2682 13.2755 24.0144C13.2755 25.4286 13.7416 26.1545 14.2267 26.5234C14.4672 26.7063 14.7078 26.7979 14.8887 26.8437C14.9343 26.8553 14.9762 26.864 15.0134 26.8705C14.8511 27.0469 14.6392 27.2584 14.429 27.4321C14.2963 27.5416 14.1674 27.6336 14.054 27.6926C13.938 27.753 13.8574 27.7686 13.8098 27.7572C13.8026 27.7548 13.7954 27.7523 13.7882 27.7498C12.3087 27.2301 12.0915 25.8701 12.203 25.142L12.2046 25.1315L12.2037 25.121C11.8958 21.4343 12.1854 19.0704 12.8347 17.5642C13.3678 16.3277 14.1442 15.6668 15.0426 15.3247ZM14.1388 27.8511C14.2678 27.7838 14.4074 27.6832 14.544 27.5703C14.8012 27.3578 15.0584 27.0931 15.2312 26.8978C15.5905 26.9582 16.1621 26.9457 16.895 26.8952C17.5319 26.8514 18.2993 26.7781 19.1693 26.695C19.3549 26.6772 19.5452 26.659 19.7398 26.6406C21.956 26.4308 24.7497 26.1871 27.7505 26.1871C32.0164 26.1871 34.6472 26.4925 36.3296 26.7328C36.6032 26.7718 36.8526 26.8093 37.0803 26.8436C37.5509 26.9143 37.9291 26.9712 38.2372 26.9993C38.6941 27.0411 39.0208 27.0229 39.2834 26.8789C39.5182 26.7501 39.7178 26.5822 39.8869 26.386C39.6844 26.7921 39.4197 27.1379 39.1264 27.3906C38.6474 27.8033 38.1078 27.9568 37.6377 27.7522C37.3712 27.6361 36.9133 27.5141 36.3152 27.396C35.7151 27.2775 34.9676 27.1619 34.1181 27.0604C32.419 26.8574 30.3086 26.7104 28.1465 26.7104C26.0261 26.7104 23.5124 27.0615 21.1435 27.3923C21.0927 27.3994 21.0419 27.4065 20.9913 27.4136C18.572 27.7513 16.3223 28.0584 14.7925 27.9474C14.5543 27.9301 14.3369 27.8971 14.1388 27.8511ZM36.6151 15.4975C36.4256 15.4201 36.2214 15.34 36.0068 15.2593C35.6047 15.1082 35.1651 14.9547 34.7163 14.8126C35.3915 14.9732 36.029 15.1945 36.6151 15.4975Z" fill="black"/>
<path d="M27.7828 13.4039C20.8366 12.9523 17.6257 14.0987 16.3274 14.4434C14.5883 14.905 14.3306 17.0596 14.3306 17.0596C14.3306 17.0596 12.5301 24.7207 14.3981 26.184C15.2836 26.8776 18.2675 26.1842 27.7828 25.7706C33.8979 25.5048 38.2086 27.1713 39.605 26.1842C40.3608 25.65 40.8545 24.8934 40.7644 23.8447C40.1816 17.0599 38.2171 15.9169 36.4135 14.9844C34.6099 14.052 32.8625 13.7341 27.7828 13.4039Z" fill="black"/>
<path fill-rule="evenodd" clip-rule="evenodd" d="M16.8121 14.4973C16.6657 14.5385 16.5357 14.575 16.4208 14.6053C15.5919 14.8238 15.1127 15.4429 14.8389 16.0182C14.7022 16.3054 14.618 16.5791 14.5681 16.7812C14.5431 16.8821 14.5268 16.9649 14.5168 17.0221C14.5117 17.0507 14.5083 17.0728 14.5061 17.0877C14.505 17.0951 14.5042 17.1007 14.5037 17.1044L14.5032 17.1084L14.5031 17.1093L14.5025 17.1145L14.5013 17.1195L14.4146 17.0984C14.5013 17.1195 14.5013 17.1194 14.5013 17.1195L14.5001 17.1248L14.4963 17.1408C14.493 17.155 14.4881 17.1762 14.4819 17.2039C14.4693 17.2593 14.451 17.3409 14.4285 17.4453C14.3833 17.654 14.3208 17.9541 14.2517 18.3187C14.1133 19.0481 13.9481 20.0351 13.8409 21.0665C13.7335 22.0987 13.6846 23.1714 13.7769 24.0737C13.8231 24.5248 13.9043 24.93 14.0294 25.265C14.1545 25.6004 14.3216 25.8597 14.536 26.0264C14.7326 26.1794 15.0584 26.2645 15.6053 26.2901C16.1489 26.3156 16.8926 26.2819 17.9093 26.2136C18.3836 26.1818 18.9166 26.1425 19.5152 26.0984C21.4798 25.9535 24.1512 25.7565 27.775 25.6002C30.7435 25.4721 33.2849 25.7978 35.2663 26.0518C35.318 26.0584 35.3693 26.065 35.4202 26.0715C36.4233 26.1999 37.2733 26.3052 37.9591 26.3181C38.6482 26.3312 39.1507 26.25 39.4727 26.0241C40.2044 25.5106 40.6725 24.7928 40.5865 23.7986C40.2976 20.4592 39.667 18.5211 38.894 17.3054C38.1231 16.0933 37.2054 15.5904 36.3126 15.1321C34.5391 14.2218 32.8205 13.9086 27.7731 13.5828C21.5016 13.178 18.3051 14.0772 16.8121 14.4973ZM14.3268 17.0821L14.3266 17.0831L14.3228 17.0995C14.3194 17.114 14.3145 17.1354 14.3081 17.1634C14.2954 17.2194 14.277 17.3016 14.2543 17.4066C14.2089 17.6167 14.1461 17.9183 14.0766 18.2846C13.9376 19.0171 13.7715 20.0095 13.6636 21.0476C13.5557 22.0849 13.5054 23.1718 13.5996 24.0923C13.6467 24.5526 13.7303 24.9744 13.8626 25.3289C13.9948 25.683 14.1778 25.9755 14.4274 26.1696C14.6706 26.3587 15.0453 26.4446 15.597 26.4705C16.152 26.4964 16.9052 26.4619 17.9211 26.3938C18.3966 26.3618 18.9304 26.3225 19.5296 26.2783C21.4942 26.1335 24.1618 25.9368 27.7825 25.7805C30.7359 25.6531 33.2646 25.9772 35.2465 26.2312C35.2973 26.2377 35.3477 26.2442 35.3978 26.2506C36.3982 26.3787 37.2585 26.4854 37.9557 26.4986C38.6496 26.5118 39.2026 26.4333 39.5742 26.1725C40.3443 25.632 40.8571 24.8574 40.7641 23.7828C40.4741 20.4302 39.8393 18.4586 39.0439 17.2077C38.2462 15.9533 37.2921 15.4326 36.3932 14.9711C34.5831 14.042 32.8298 13.7283 27.7844 13.4026C21.4847 12.996 18.2673 13.9008 16.7676 14.3225C16.6211 14.3637 16.4909 14.4003 16.3759 14.4306C15.477 14.6675 14.9644 15.3386 14.6783 15.9398C14.535 16.2408 14.4472 16.5268 14.3951 16.7374C14.3691 16.8428 14.3519 16.9296 14.3412 16.9904C14.3359 17.0208 14.3322 17.0447 14.3297 17.0612C14.3285 17.0695 14.3277 17.0759 14.3271 17.0803L14.3268 17.0821Z" fill="#00F8DA"/>
<g filter="url(#filter0_d_34_899)">
<path d="M16.6599 16.5693L18.3067 16.5683L18.3113 23.5091L16.6645 23.5102L16.6599 16.5693Z" fill="#00F8DA"/>
<path d="M28.1874 16.5618L29.8342 16.5607L29.8388 23.5016L28.192 23.5026L28.1874 16.5618Z" fill="#00F8DA"/>
<path d="M19.6241 16.5676L21.2709 16.5665L21.2736 20.7311L19.6269 20.7322L19.6241 16.5676Z" fill="#00F8DA"/>
<path d="M31.1516 16.5602L32.7984 16.5591L32.8011 20.7237L31.1544 20.7248L31.1516 16.5602Z" fill="#00F8DA"/>
<path d="M22.5883 16.5654L24.2351 16.5644L24.2397 23.5052L22.5929 23.5063L22.5883 16.5654Z" fill="#00F8DA"/>
<path d="M33.7864 16.5583L35.4332 16.5572L35.4378 23.4981L33.791 23.4992L33.7864 16.5583Z" fill="#00F8DA"/>
<path d="M25.2232 16.5641L26.87 16.5631L26.8709 17.9512L25.2241 17.9523L25.2232 16.5641Z" fill="#00F8DA"/>
<path d="M36.4213 16.5565L38.0681 16.5555L38.069 17.9436L36.4222 17.9447L36.4213 16.5565Z" fill="#00F8DA"/>
<path d="M25.225 19.3402L26.8718 19.3391L26.8727 20.7273L25.2259 20.7283L25.225 19.3402Z" fill="#00F8DA"/>
<path d="M36.4231 19.3328L38.0699 19.3317L38.0708 20.7199L36.424 20.721L36.4231 19.3328Z" fill="#00F8DA"/>
<path d="M25.2268 22.1166L26.8736 22.1155L26.8745 23.5037L25.2278 23.5048L25.2268 22.1166Z" fill="#00F8DA"/>
<path d="M36.425 22.1092L38.0717 22.1082L38.0727 23.4963L36.4259 23.4974L36.425 22.1092Z" fill="#00F8DA"/>
</g>
<defs>
<filter id="filter0_d_34_899" x="0.659912" y="0.55545" width="53.4128" height="38.9548" filterUnits="userSpaceOnUse" color-interpolation-filters="sRGB">
<feFlood flood-opacity="0" result="BackgroundImageFix"/>
<feColorMatrix in="SourceAlpha" type="matrix" values="0 0 0 0 0 0 0 0 0 0 0 0 0 0 0 0 0 0 127 0" result="hardAlpha"/>
<feOffset/>
<feGaussianBlur stdDeviation="8"/>
<feComposite in2="hardAlpha" operator="out"/>
<feColorMatrix type="matrix" values="0 0 0 0 0 0 0 0 0 0.970833 0 0 0 0 0.854333 0 0 0 0.6 0"/>
<feBlend mode="normal" in2="BackgroundImageFix" result="effect1_dropShadow_34_899"/>
<feBlend mode="normal" in="SourceGraphic" in2="effect1_dropShadow_34_899" result="shape"/>
</filter>
<radialGradient id="paint0_radial_34_899" cx="0" cy="0" r="1" gradientUnits="userSpaceOnUse" gradientTransform="translate(28.9653 16.8312) rotate(103.619) scale(26.9259 33.613)">
<stop offset="0.5625" stop-color="#75FFCD"/>
<stop offset="1" stop-color="#004029"/>
</radialGradient>
</defs>
</svg>
